<svg width="21" height="21" viewBox="0 0 21 21" fill="none" xmlns="http://www.w3.org/2000/svg">
<g clip-path="url(#clip0_2130_146)">
<path d="M10.5 21C13.2848 21 15.9555 19.8938 17.9246 17.9246C19.8938 15.9555 21 13.2848 21 10.5C21 7.71523 19.8938 5.04451 17.9246 3.07538C15.9555 1.10625 13.2848 0 10.5 0C7.71523 0 5.04451 1.10625 3.07538 3.07538C1.10625 5.04451 0 7.71523 0 10.5C0 13.2848 1.10625 15.9555 3.07538 17.9246C5.04451 19.8938 7.71523 21 10.5 21ZM10.5 5.25C11.0455 5.25 11.4844 5.68887 11.4844 6.23438V10.8281C11.4844 11.3736 11.0455 11.8125 10.5 11.8125C9.95449 11.8125 9.51562 11.3736 9.51562 10.8281V6.23438C9.51562 5.68887 9.95449 5.25 10.5 5.25ZM9.1875 14.4375C9.1875 14.0894 9.32578 13.7556 9.57192 13.5094C9.81806 13.2633 10.1519 13.125 10.5 13.125C10.8481 13.125 11.1819 13.2633 11.4281 13.5094C11.6742 13.7556 11.8125 14.0894 11.8125 14.4375C11.8125 14.7856 11.6742 15.1194 11.4281 15.3656C11.1819 15.6117 10.8481 15.75 10.5 15.75C10.1519 15.75 9.81806 15.6117 9.57192 15.3656C9.32578 15.1194 9.1875 14.7856 9.1875 14.4375Z" fill="#F0533E"/>
</g>
<defs>
<clipPath id="clip0_2130_146">
<rect width="21" height="21" fill="white"/>
</clipPath>
</defs>
</svg>
