<svg width="21" height="21" viewBox="0 0 21 21" fill="none" xmlns="http://www.w3.org/2000/svg">
<g clip-path="url(#clip0_2130_140)">
<path d="M10.5 21C13.2848 21 15.9555 19.8938 17.9246 17.9246C19.8938 15.9555 21 13.2848 21 10.5C21 7.71523 19.8938 5.04451 17.9246 3.07538C15.9555 1.10625 13.2848 0 10.5 0C7.71523 0 5.04451 1.10625 3.07538 3.07538C1.10625 5.04451 0 7.71523 0 10.5C0 13.2848 1.10625 15.9555 3.07538 17.9246C5.04451 19.8938 7.71523 21 10.5 21ZM15.1348 8.57227L9.88477 13.8223L9.1875 14.5195L8.49023 13.8223L5.86523 11.1973L5.16797 10.5L6.5625 9.10957L7.25977 9.80684L9.1875 11.7346L13.7402 7.17773L14.4375 6.48047L15.8279 7.875L15.1307 8.57227H15.1348Z" fill="#57B237"/>
</g>
<defs>
<clipPath id="clip0_2130_140">
<rect width="21" height="21" fill="white"/>
</clipPath>
</defs>
</svg>
